HIERARCHY
ROOT root
{
	OFFSET	0	13.1	24.9
	CHANNELS 6  Xposition Yposition Zposition Xrotation Yrotation Zrotation
	JOINT spine_1
	{
		OFFSET	0	9.99999	0
		CHANNELS 3  Xrotation Yrotation Zrotation
		JOINT spine_2
		{
			OFFSET	0	112	-10
			CHANNELS 3  Xrotation Yrotation Zrotation
			JOINT spine_3
			{
				OFFSET	0	206.5	19.3
				CHANNELS 3  Xrotation Yrotation Zrotation
				JOINT spine_4
				{
					OFFSET	0	110.4	14.6
					CHANNELS 3  Xrotation Yrotation Zrotation
					JOINT neck_1
					{
						OFFSET	0	71.8	-50.3
						CHANNELS 3  Xrotation Yrotation Zrotation
						JOINT neck_2
						{
							OFFSET	0	86.2	-25.8
							CHANNELS 3  Xrotation Yrotation Zrotation
							JOINT head_ee
							{
								OFFSET	0	179.8	-8.7
								CHANNELS 3  Xrotation Yrotation Zrotation
								End Site
								{
									OFFSET	1	0	0
								}
							}
						}
					}
					JOINT left_clavicle
					{
						OFFSET	-43.2	22.4	-70.8
						CHANNELS 3  Xrotation Yrotation Zrotation
						JOINT left_shoulder
						{
							OFFSET	-93.9	-5.79999	48.7
							CHANNELS 3  Xrotation Yrotation Zrotation
							JOINT left_elbow
							{
								OFFSET	-291.4	-30.8	15.2
								CHANNELS 3  Xrotation Yrotation Zrotation
								JOINT left_lowarm_twist
								{
									OFFSET	-110.7	-3.89999	13.6
									CHANNELS 3  Xrotation Yrotation Zrotation
									JOINT left_hand
									{
										OFFSET	-110.7	-3.89999	13.6
										CHANNELS 3  Xrotation Yrotation Zrotation
										JOINT left_ee
										{
											OFFSET	-80.8	-5.10001	12.1
											CHANNELS 3  Xrotation Yrotation Zrotation
											End Site
											{
												OFFSET	1	0	0
											}
										}
									}
								}
							}
						}
					}
					JOINT right_clavicle
					{
						OFFSET	43.2	22.4	-70.8
						CHANNELS 3  Xrotation Yrotation Zrotation
						JOINT right_shoulder
						{
							OFFSET	93.9	-5.79999	48.7
							CHANNELS 3  Xrotation Yrotation Zrotation
							JOINT right_elbow
							{
								OFFSET	291.4	-30.8	15.2
								CHANNELS 3  Xrotation Yrotation Zrotation
								JOINT right_lowarm_twist
								{
									OFFSET	110.7	-3.89999	13.6
									CHANNELS 3  Xrotation Yrotation Zrotation
									JOINT right_hand
									{
										OFFSET	110.7	-3.89999	13.6
										CHANNELS 3  Xrotation Yrotation Zrotation
										JOINT right_ee
										{
											OFFSET	80.8	-5.10001	12.1
											CHANNELS 3  Xrotation Yrotation Zrotation
											End Site
											{
												OFFSET	1	0	0
											}
										}
									}
								}
							}
						}
					}
				}
			}
		}
	}
	JOINT left_hip
	{
		OFFSET	-82.8	-127.5	0.300001
		CHANNELS 3  Xrotation Yrotation Zrotation
		JOINT left_knee
		{
			OFFSET	-28.2	-396.7	2.2
			CHANNELS 3  Xrotation Yrotation Zrotation
			JOINT left_ankle
			{
				OFFSET	-11.7	-411.3	35.4
				CHANNELS 3  Xrotation Yrotation Zrotation
				JOINT left_toes
				{
					OFFSET	0	-60	-88.6
					CHANNELS 3  Xrotation Yrotation Zrotation
					JOINT left_foot_ee
					{
						OFFSET	-22.5	-16.5	-42.2
						CHANNELS 3  Xrotation Yrotation Zrotation
						End Site
						{
							OFFSET	1	0	0
						}
					}
				}
			}
		}
	}
	JOINT right_hip
	{
		OFFSET	82.8	-127.5	0.300001
		CHANNELS 3  Xrotation Yrotation Zrotation
		JOINT right_knee
		{
			OFFSET	28.2	-396.7	2.2
			CHANNELS 3  Xrotation Yrotation Zrotation
			JOINT right_ankle
			{
				OFFSET	11.7	-411.3	35.4
				CHANNELS 3  Xrotation Yrotation Zrotation
				JOINT right_toes
				{
					OFFSET	0	-60	-88.6
					CHANNELS 3  Xrotation Yrotation Zrotation
					JOINT right_foot_ee
					{
						OFFSET	22.5	-16.5	-42.2
						CHANNELS 3  Xrotation Yrotation Zrotation
						End Site
						{
							OFFSET	1	0	0
						}
					}
				}
			}
		}
	}
}
MOTION
Frames: 14
Frame Time: 0.02
2989.4407339 685.263 -1940.33516361 -20.5456886527 5.67498132171 1.86156944253 7.56991 0.384247 1.43042 7.571 0.292457 1.45197 7.57662 0.176268 1.4706 7.57383 0.406285 1.42432 -14.0203 10.4767 -5.18175 -14.3709 23.1284 -1.52064 -0.0 0.0 -0.0 4.12654 11.7121 8.35148 6.23858 3.13972 65.1411 1.17262 -30.1504 0.315864 7.94697 0.211462 -0.992303 0.957917 7.79018 9.49707 -0.0 0.0 -0.0 12.7192 25.6923 -25.0651 -21.2423 -12.6615 -71.4503 0.27394 7.7281 -0.0185027 -78.9195 7.68461 -5.29299 -1.14965 -0.262805 7.5833 0.0 0.0 0.0 29.2291 22.2668 3.10265 -14.4638 0.320495 2.19062 41.1722 15.0459 -5.03712 -19.5208 0.0 0.0 -0.0 0.0 -0.0 43.2077 19.6747 0.0425677 -52.8619 1.48045 -7.69369 -24.4415 -23.5614 -3.8047 11.0343 -0.0 -0.0 0.0 0.0 0.0 
2974.88899628 690.149 -1948.39273939 -20.025635532 4.67475058786 0.619356176911 7.44971 0.380501 1.57904 7.45105 0.279265 1.60005 7.4567 0.147975 1.61748 7.45328 0.401536 1.57383 -14.9685 9.25647 -4.98893 -15.2828 20.6509 -1.57542 -0.0 0.0 -0.0 3.93452 11.5513 8.021 7.68769 3.43053 63.5495 1.23615 -31.48 0.34841 13.7708 0.278135 -1.73289 1.6544 2.1178 11.9628 -0.0 0.0 -0.0 13.2854 24.9491 -26.4587 -21.566 -11.1831 -69.983 0.222251 6.28292 -0.012198 -77.6346 7.52106 -5.30534 -0.262969 -1.47276 1.12928 0.0 0.0 0.0 26.4596 25.1201 4.50385 -13.1438 0.314309 1.98821 41.3042 12.5927 -5.01472 -19.9944 0.0 0.0 -0.0 0.0 -0.0 47.7901 17.5829 -1.166 -51.6285 1.36694 -7.54132 -24.8358 -26.4088 -3.92288 3.42053 -0.0 -0.0 0.0 0.0 0.0 
2971.54400045 690.149 -1945.93940884 -20.046303991 5.32271166934 0.856556063998 7.44971 0.380501 1.57904 7.45105 0.279265 1.60005 7.4567 0.147975 1.61748 7.45328 0.401536 1.57383 -14.9685 9.25647 -4.98893 -15.2828 20.6509 -1.57542 -0.0 0.0 -0.0 3.93452 11.5513 8.021 7.68769 3.43053 63.5495 1.23615 -31.48 0.34841 13.7708 0.278135 -1.73289 1.6544 2.1178 11.9628 -0.0 0.0 -0.0 13.2854 24.9491 -26.4587 -21.566 -11.1831 -69.983 0.222251 6.28292 -0.012198 -77.6346 7.52106 -5.30534 -0.262969 -1.47276 1.12928 0.0 0.0 0.0 26.4596 25.1201 4.50385 -13.1438 0.314309 1.98821 41.3042 12.5927 -5.01472 -19.9944 0.0 0.0 -0.0 0.0 -0.0 47.7901 17.5829 -1.166 -51.6285 1.36694 -7.54132 -24.8358 -26.4088 -3.92288 3.42053 -0.0 -0.0 0.0 0.0 0.0 
2945.84150902 689.574 -1947.6091741 -19.8170081262 5.530805929 0.482697611204 7.5189 0.384845 1.72674 7.52052 0.274205 1.74772 7.52628 0.133045 1.76409 7.52217 0.409939 1.72096 -15.619 8.61316 -3.9538 -15.9187 18.7914 -0.714615 -0.0 0.0 -0.0 3.93368 10.8582 8.00268 9.11052 3.51578 62.244 1.25556 -31.8789 0.358604 19.2247 0.272123 -2.42921 2.23383 -3.12233 13.8333 -0.0 0.0 -0.0 13.5192 24.5824 -27.0436 -21.8823 -9.53164 -70.1926 0.201399 5.69754 -0.0100219 -76.8729 7.42396 -5.31091 0.57299 -2.25849 -4.75562 0.0 0.0 0.0 24.8419 28.8088 5.11772 -12.2217 0.307221 1.84689 40.9905 10.2756 -4.96459 -20.2847 0.0 0.0 -0.0 0.0 -0.0 50.8555 16.0714 -1.9377 -50.7785 1.29065 -7.43492 -24.2107 -28.5527 -3.87329 -2.42324 0.0 0.0 0.0 0.0 0.0 
2863.1926549 690.705 -1981.70549378 -19.3879983033 10.415602763 2.67426342581 6.94148 0.413753 1.70451 6.94305 0.304469 1.72737 6.94996 0.14728 1.7478 6.94594 0.421423 1.70263 -15.8734 4.94512 -3.20868 -15.97 11.3317 -1.29799 -0.0 0.0 -0.0 4.2009 6.55815 8.35714 10.9475 4.53882 59.3084 1.63227 -38.9553 0.577336 35.2363 -0.124948 -4.42934 4.90515 -24.5845 21.8604 -0.0 0.0 -0.0 12.9493 15.0911 -26.3819 -25.9142 -3.28474 -65.8315 0.198208 5.60783 -0.0097076 -73.4811 6.99077 -5.3199 2.47826 0.78429 -16.4881 0.0 0.0 0.0 13.4487 36.535 9.66504 -7.40759 0.233364 1.1121 40.5806 4.51141 -4.90778 -21.9647 0.0 0.0 -0.0 0.0 -0.0 54.7125 18.1083 -7.57999 -33.9337 0.126594 -5.13083 -19.5153 -28.6048 -3.11956 -26.5451 0.0 0.0 0.0 0.0 0.0 
2859.67642451 690.705 -1978.13316146 -19.4288047871 11.02731222 2.89360894267 6.94148 0.413753 1.70451 6.94305 0.304469 1.72737 6.94996 0.14728 1.7478 6.94594 0.421423 1.70263 -15.8734 4.94512 -3.20868 -15.97 11.3317 -1.29799 -0.0 0.0 -0.0 4.2009 6.55815 8.35714 10.9475 4.53882 59.3084 1.63227 -38.9553 0.577336 35.2363 -0.124948 -4.42934 4.90515 -24.5845 21.8604 -0.0 0.0 -0.0 12.9493 15.0911 -26.3819 -25.9142 -3.28474 -65.8315 0.198208 5.60783 -0.0097076 -73.4811 6.99077 -5.3199 2.47826 0.78429 -16.4881 0.0 0.0 0.0 13.4487 36.535 9.66504 -7.40759 0.233364 1.1121 40.5806 4.51141 -4.90778 -21.9647 0.0 0.0 -0.0 0.0 -0.0 54.7125 18.1083 -7.57999 -33.9337 0.126594 -5.13083 -19.5153 -28.6048 -3.11956 -26.5451 0.0 0.0 0.0 0.0 0.0 
2837.98326758 690.701 -1984.78908044 -19.1547879568 13.0218345394 3.02894055021 6.81517 0.37327 1.72763 6.8168 0.262596 1.74788 6.82254 0.0997821 1.76467 6.81839 0.377185 1.72678 -15.7027 5.26662 -3.26272 -15.8105 11.9844 -1.2528 -0.0 0.0 -0.0 4.95426 5.58499 9.71424 11.6173 5.47069 58.0145 1.7057 -40.1929 0.624119 37.8016 -0.239884 -4.73649 5.06588 -28.0755 20.7652 -0.0 0.0 -0.0 13.1534 12.6722 -26.9087 -26.9395 -2.66835 -65.2467 0.187606 5.30964 -0.00869901 -73.0026 6.92961 -5.31909 2.72621 2.49551 -17.532 0.0 0.0 0.0 10.1383 37.2443 11.2699 -4.67902 0.164172 0.699125 39.8901 3.73991 -4.8494 -22.5396 0.0 0.0 -0.0 0.0 -0.0 56.5026 18.922 -8.9187 -32.1849 0.0458049 -4.87467 -16.0255 -28.4698 -2.55427 -31.7029 0.0 0.0 0.0 0.0 0.0 
2822.63881979 689.543 -1994.1264806 -19.4140519557 13.5206506896 4.03442169333 6.68511 0.360102 1.58318 6.68647 0.258644 1.60288 6.69185 0.10556 1.62017 6.68837 0.360079 1.58318 -16.8637 6.14422 -3.89253 -17.0369 13.98 -1.39291 -0.0 0.0 -0.0 5.13583 5.02287 10.0416 10.1612 7.49251 58.8477 2.03635 -45.2442 0.848647 40.0802 -0.353438 -5.00482 4.74494 -28.4458 18.3983 -0.0 0.0 -0.0 12.8371 10.8486 -26.1857 -27.6503 -2.23185 -64.794 0.203937 5.76884 -0.0102755 -72.8748 6.91327 -5.31879 3.05841 6.01573 -18.3929 0.0 0.0 0.0 7.98583 37.8715 11.4193 -2.33905 0.0892162 0.347854 39.0036 3.65226 -4.77199 -23.2285 0.0 0.0 -0.0 0.0 -0.0 57.5617 19.4051 -9.93369 -26.4712 -0.162972 -4.02301 -13.9664 -27.5667 -2.21008 -38.1764 0.0 0.0 0.0 0.0 0.0 
2823.29113545 689.543 -1994.83669465 -19.4049060635 13.4122505308 3.99514804764 6.68511 0.360102 1.58318 6.68647 0.258644 1.60288 6.69185 0.10556 1.62017 6.68837 0.360079 1.58318 -16.8637 6.14422 -3.89253 -17.0369 13.98 -1.39291 -0.0 0.0 -0.0 5.13583 5.02287 10.0416 10.1612 7.49251 58.8477 2.03635 -45.2442 0.848647 40.0802 -0.353438 -5.00482 4.74494 -28.4458 18.3983 -0.0 0.0 -0.0 12.8371 10.8486 -26.1857 -27.6503 -2.23185 -64.794 0.203937 5.76884 -0.0102755 -72.8748 6.91327 -5.31879 3.05841 6.01573 -18.3929 0.0 0.0 0.0 7.98583 37.8715 11.4193 -2.33905 0.0892162 0.347854 39.0036 3.65226 -4.77199 -23.2285 0.0 0.0 -0.0 0.0 -0.0 57.5617 19.4051 -9.93369 -26.4712 -0.162972 -4.02301 -13.9664 -27.5667 -2.21008 -38.1764 0.0 0.0 0.0 0.0 0.0 
2808.12606934 685.633 -2006.49314282 -20.2554609272 12.9981723556 4.0177445155 6.9031 0.315811 1.27083 6.90396 0.234312 1.28835 6.90798 0.11606 1.30432 6.90575 0.32058 1.26963 -17.6773 6.5712 -4.60464 -17.8949 15.1511 -1.79204 -0.0 0.0 -0.0 5.0652 1.40546 9.82965 9.15475 8.90473 59.8824 2.06999 -45.7134 0.872632 45.4299 -0.661397 -5.61577 4.18611 -28.2376 14.8598 -0.0 0.0 -0.0 12.6678 13.3188 -25.7752 -24.7178 -3.66641 -63.7123 0.199578 5.64634 -0.00984192 -72.2459 6.83289 -5.31676 3.84083 9.07765 -22.6404 0.0 0.0 0.0 6.74151 38.7126 11.9655 -0.704092 0.0283506 0.104331 40.1618 1.53073 -4.88036 -26.1963 0.0 0.0 -0.0 0.0 -0.0 55.7131 20.5186 -9.79403 -12.5645 -0.310122 -1.89942 -16.9264 -26.3529 -2.66603 -40.3041 0.0 0.0 0.0 0.0 0.0 
2798.19986529 676.369 -2013.86532473 -20.0702235298 13.271899402 4.56470604388 6.97095 0.202957 1.03613 6.97154 0.136618 1.04694 6.97319 0.041927 1.05499 6.9717 0.208007 1.03513 -17.3994 8.47978 -3.36803 -17.7582 18.1481 0.0812301 -0.0 0.0 -0.0 4.52599 -1.53813 8.67147 7.8359 10.091 59.4319 2.06041 -45.5806 0.865781 51.9391 -1.1111 -6.31683 3.76861 -28.0136 12.2777 -0.0 0.0 -0.0 12.5124 14.1144 -25.3995 -25.2918 -4.1851 -64.7783 0.227484 6.42962 -0.0127773 -71.9317 6.79275 -5.31541 4.23282 11.095 -24.5383 0.0 0.0 0.0 5.76009 39.673 11.9687 -0.813462 0.0326392 0.120568 40.2964 -0.501525 -4.90517 -27.4257 0.0 0.0 -0.0 0.0 -0.0 54.3376 21.2413 -9.50589 -3.79688 -0.137601 -0.566351 -17.0589 -23.2894 -2.64597 -40.1536 0.0 0.0 0.0 0.0 0.0 
2782.84283982 668.651 -2027.22057221 -20.1605879232 14.1893601533 5.07203320128 6.96005 0.191859 0.933365 6.96053 0.13208 0.94368 6.96202 0.0465062 0.951742 6.96081 0.196226 0.932456 -16.9217 10.0884 -2.7038 -17.3996 20.8763 1.25956 -0.0 0.0 -0.0 4.21014 -4.69722 7.87971 7.24402 10.8056 58.8042 2.05431 -45.4957 0.861432 58.293 -1.62434 -6.94824 3.33692 -27.5898 9.72341 -0.0 0.0 -0.0 12.4214 14.659 -25.1749 -25.5357 -5.40667 -65.6476 0.218479 6.17711 -0.0117886 -71.5898 6.74905 -5.31369 4.52341 12.64 -25.9026 0.0 0.0 0.0 5.11936 39.6906 11.5699 -2.7481 0.103354 0.409039 40.0447 -2.73434 -4.90545 -27.905 0.0 0.0 -0.0 0.0 -0.0 53.5288 22.4211 -10.3064 2.489 0.11047 0.365918 -14.9795 -20.2276 -2.29135 -39.2862 0.0 0.0 0.0 0.0 0.0 
2765.58996665 662.94 -2040.82048746 -20.308878298 15.3804020152 5.66703791205 7.01471 0.0624754 1.01713 7.01528 -0.00237078 1.01905 7.01444 -0.0932821 1.01477 7.01301 0.0681447 1.01677 -15.6238 11.2563 -2.3243 -16.1324 22.9026 1.80487 -0.0 0.0 -0.0 4.35538 -6.68706 8.05679 6.61718 11.0776 58.9434 2.0569 -45.5318 0.863278 62.3155 -1.98435 -7.31733 2.8563 -26.186 7.35698 -0.0 0.0 -0.0 12.2998 15.0619 -24.8825 -26.3931 -6.5554 -66.0947 0.191909 5.43071 -0.00910174 -71.7875 6.77431 -5.31472 4.71709 14.4072 -26.4019 0.0 0.0 0.0 4.19676 39.6807 11.4344 -4.16893 0.149058 0.6223 39.918 -4.16611 -4.91256 -28.0233 0.0 0.0 -0.0 0.0 -0.0 52.9785 23.4293 -11.0076 5.02865 0.239497 0.734088 -11.5719 -15.7228 -1.74164 -36.772 0.0 0.0 0.0 0.0 0.0 
2750.23342492 657.683 -2056.3697604 -19.6285799277 17.5750333664 5.22116893199 6.51391 0.132006 1.05492 6.51453 0.0646147 1.06118 6.51493 -0.0395767 1.06241 6.51338 0.128698 1.05533 -14.957 11.58 -1.32604 -15.4343 22.9276 2.71512 -0.0 0.0 -0.0 4.47549 -6.88316 8.29051 5.59797 10.7446 58.9892 2.1692 -47.0523 0.944465 66.4764 -2.38318 -7.67177 2.29651 -22.4086 5.57744 -0.0 0.0 -0.0 12.4191 13.9524 -25.1891 -25.8614 -7.20876 -65.3477 0.222982 6.30342 -0.0122782 -71.7545 6.7701 -5.31455 4.85295 13.986 -27.6465 0.0 0.0 0.0 2.97363 37.8077 10.7194 -7.04215 0.225239 1.05661 39.6593 -4.45873 -4.89428 -27.346 0.0 0.0 -0.0 0.0 -0.0 54.2571 23.7969 -12.0998 -1.39953 -0.0550906 -0.207707 -3.97797 -7.3324 -0.587321 -31.9056 0.0 0.0 0.0 0.0 0.0 
